<?xml version="1.0" encoding="utf-8"?>
<!-- Generator: Adobe Illustrator 25.4.1, SVG Export Plug-In . SVG Version: 6.00 Build 0)  -->
<svg version="1.1" id="Layer_1" xmlns="http://www.w3.org/2000/svg" xmlns:xlink="http://www.w3.org/1999/xlink" x="0px" y="0px"
	 viewBox="0 0 500 130.2" style="enable-background:new 0 0 500 130.2;" xml:space="preserve">
<style type="text/css">
	.st0{fill:#FFFFFF;}
</style>
<g>
	<rect x="161" y="44.7" class="st0" width="22.1" height="84.5"/>
	<path class="st0" d="M332.7,41.5c14.8,0,22.3,9.9,22.3,29.6v58.2h22.3V59.9c0-14-6.4-23.1-11.7-28.2c-6.8-6.6-16.4-9.9-28.4-9.9
		c-9,0-16.5,2.2-22.5,6.4c-4,2.8-7.2,6.2-9.8,10.2l-1.3,2.1l-1.2-2.2c-0.5-0.9-1-1.7-1.6-2.6c-1.9-2.8-4.3-5.2-7-7.3
		c-2.7-2.1-6-3.7-9.6-4.9c-3.6-1.2-7.7-1.8-12-1.8c-12.1,0-20.8,4.6-25.8,13.6l-2.8,5.1V24h-22.3v105.2h22.3V71
		c0-19.6,7.5-29.6,22.4-29.6c14.8,0,22.2,9.9,22.2,29.6v58.2h22.3V71C310.4,51.4,317.9,41.5,332.7,41.5z"/>
	<rect x="0" y="2.2" class="st0" width="22.3" height="127"/>
	<rect x="102.8" y="2.2" class="st0" width="22.1" height="127"/>
	<path class="st0" d="M31,60.7c0.6,16.8,14.6,30.5,31.5,30.5c16.9,0,31-13.7,31.5-30.5H31z"/>
	<path class="st0" d="M172,0c-7.4,0-13.4,6-13.4,13.3s6,13.3,13.4,13.3c7.4,0,13.3-6,13.3-13.3S179.4,0,172,0z"/>
	<path class="st0" d="M498,58.8c-6-23.2-23.7-37-47.4-37c-30,0-50.1,21.2-50.1,52.8c0,16.6,4.6,30.6,13.2,40.3
		c9,10.1,22,15.4,37.5,15.4c36.2,0,45.9-22.9,48.1-30.4h-20c-4.3,8.7-14.3,13.6-28.1,13.6c-21.3,0-30.1-17.8-30.6-29.1l-0.1-1.3
		h79.2C500,79.5,500.6,68.7,498,58.8z M480.3,66.1h-59.4v-1.3c0-12.5,12.2-26.4,29.8-26.4c17,0,29.6,13.9,29.6,26.4V66.1z"/>
</g>
</svg>
