<svg xmlns="http://www.w3.org/2000/svg" viewBox="0 0 1200 720" role="img" aria-labelledby="title desc">
  <title id="title">Fotballbane under flomlys</title>
  <desc id="desc">En stilisert fotballbane med flomlys og en ball, uten laglogoer eller spillere.</desc>
  <defs>
    <linearGradient id="sky" x1="0" y1="0" x2="1" y2="1">
      <stop offset="0" stop-color="#043f46"/>
      <stop offset=".55" stop-color="#062f37"/>
      <stop offset="1" stop-color="#091b28"/>
    </linearGradient>
    <linearGradient id="pitch" x1="0" y1="0" x2="0" y2="1">
      <stop offset="0" stop-color="#1aa06f"/>
      <stop offset="1" stop-color="#08705f"/>
    </linearGradient>
    <radialGradient id="light" cx="50%" cy="50%" r="50%">
      <stop offset="0" stop-color="#ffffff" stop-opacity=".95"/>
      <stop offset=".22" stop-color="#ffffff" stop-opacity=".42"/>
      <stop offset="1" stop-color="#ffffff" stop-opacity="0"/>
    </radialGradient>
    <filter id="soft" x="-20%" y="-20%" width="140%" height="140%">
      <feGaussianBlur stdDeviation="10"/>
    </filter>
  </defs>
  <rect width="1200" height="720" fill="url(#sky)"/>
  <path d="M0 0h1200v430c-185 42-381 62-589 59C395 486 191 456 0 397Z" fill="#07515a" opacity=".42"/>
  <g opacity=".7" filter="url(#soft)">
    <ellipse cx="190" cy="128" rx="235" ry="115" fill="url(#light)"/>
    <ellipse cx="1010" cy="126" rx="235" ry="115" fill="url(#light)"/>
  </g>
  <g stroke="#f9ffff" stroke-width="5" stroke-linecap="round" opacity=".65">
    <path d="M170 102 72 370M210 102 120 383M990 102l98 268M1030 102l90 281"/>
    <path d="M120 118h178M902 118h178"/>
  </g>
  <path d="M0 428c189 45 385 68 588 69 218 1 422-22 612-73v296H0Z" fill="url(#pitch)"/>
  <g fill="none" stroke="#d9fff3" stroke-width="5" opacity=".72">
    <path d="M70 621c287-75 755-78 1060-3"/>
    <path d="M90 515c287 47 735 49 1020-4"/>
    <path d="M600 497v223"/>
    <ellipse cx="600" cy="593" rx="112" ry="42"/>
    <path d="M175 560c70 15 133 22 204 27v86c-73-6-143-16-212-31Z"/>
    <path d="M1025 560c-70 15-133 22-204 27v86c73-6 143-16 212-31Z"/>
  </g>
  <g transform="translate(522 378)">
    <ellipse cx="78" cy="211" rx="102" ry="19" fill="#05252b" opacity=".28"/>
    <circle cx="78" cy="166" r="58" fill="#f8fbff"/>
    <path d="m78 109 39 29-14 47H53l-14-47Z" fill="#082d35"/>
    <path d="m23 151 30 34-13 32M133 151l-30 34 13 32M54 185l-33 12M102 185l33 12" stroke="#082d35" stroke-width="8" stroke-linecap="round" fill="none"/>
  </g>
</svg>
